<svg width="337" height="324" viewBox="0 0 337 324" fill="none" xmlns="http://www.w3.org/2000/svg">
<path d="M269.086 177.854C271.877 178.244 274.329 179.004 276.249 180.006C278.18 181.015 279.499 182.228 280.144 183.485L318.541 258.287C319.163 259.499 319.143 260.713 318.541 261.886C317.919 263.097 316.64 264.323 314.645 265.364L209.743 320.123C205.747 322.21 199.816 323.06 194.213 322.276L50.9142 302.233C48.1234 301.842 45.6709 301.082 43.7515 300.08C41.8199 299.072 40.5008 297.858 39.8558 296.602L1.4591 221.8C0.836995 220.588 0.857024 219.373 1.4591 218.2C2.08091 216.989 3.36 215.763 5.3548 214.722L110.257 159.963C114.253 157.877 120.184 157.027 125.787 157.811L269.086 177.854Z" fill="url(#paint0_linear_167_529)" stroke="url(#paint1_linear_167_529)" stroke-width="2"/>
<path d="M269.086 160.813C271.877 161.204 274.329 161.964 276.249 162.966C278.18 163.974 279.499 165.188 280.144 166.444L318.541 241.246C319.163 242.458 319.143 243.673 318.541 244.846C317.919 246.057 316.64 247.283 314.645 248.324L209.743 303.083C205.747 305.169 199.816 306.019 194.213 305.235L50.9142 285.192C48.1234 284.802 45.6709 284.042 43.7515 283.04C41.8199 282.031 40.5008 280.818 39.8558 279.561L1.4591 204.759C0.836995 203.547 0.857024 202.333 1.4591 201.16C2.08091 199.948 3.36 198.723 5.3548 197.681L110.257 142.923C114.253 140.836 120.184 139.986 125.787 140.77L269.086 160.813Z" fill="url(#paint2_linear_167_529)" stroke="url(#paint3_linear_167_529)" stroke-width="2"/>
<path d="M269.086 143.773C271.877 144.163 274.329 144.923 276.249 145.925C278.18 146.933 279.499 148.147 280.144 149.404L318.541 224.206C319.163 225.418 319.143 226.632 318.541 227.805C317.919 229.016 316.64 230.242 314.645 231.283L209.743 286.042C205.747 288.129 199.816 288.979 194.213 288.195L50.9142 268.152C48.1234 267.761 45.6709 267.001 43.7515 265.999C41.8199 264.991 40.5008 263.777 39.8558 262.521L1.4591 187.719C0.836995 186.507 0.857024 185.292 1.4591 184.119C2.08091 182.908 3.36 181.682 5.3548 180.641L110.257 125.882C114.253 123.796 120.184 122.946 125.787 123.73L269.086 143.773Z" fill="url(#paint4_linear_167_529)" stroke="url(#paint5_linear_167_529)" stroke-width="2"/>
<g style="mix-blend-mode:plus-lighter" opacity="0.2" filter="url(#filter0_f_167_529)">
<ellipse cx="24.297" cy="9.48295" rx="24.297" ry="9.48295" transform="matrix(0.989712 0.143073 -0.168853 0.985641 195.802 125.087)" fill="#6F36D9"/>
</g>
<g style="mix-blend-mode:plus-lighter" opacity="0.2" filter="url(#filter1_f_167_529)">
<ellipse cx="47.97" cy="9.68495" rx="47.97" ry="9.68495" transform="matrix(0.899761 -0.436384 0.510938 0.859618 215 270.398)" fill="#6F36D9"/>
</g>
<path d="M269.086 126.732C271.877 127.122 274.329 127.883 276.249 128.885C278.18 129.893 279.499 131.107 280.144 132.363L318.541 207.165C319.163 208.377 319.143 209.592 318.541 210.765C317.919 211.976 316.64 213.202 314.645 214.243L209.743 269.002C205.747 271.088 199.816 271.938 194.213 271.154L50.9142 251.111C48.1234 250.721 45.6709 249.961 43.7515 248.959C41.8199 247.95 40.5008 246.737 39.8558 245.48L1.4591 170.678C0.836995 169.466 0.857024 168.252 1.4591 167.079C2.08091 165.867 3.36 164.642 5.3548 163.6L110.257 108.842C114.253 106.755 120.184 105.905 125.787 106.689L269.086 126.732Z" fill="url(#paint6_linear_167_529)" stroke="url(#paint7_linear_167_529)" stroke-width="2"/>
<g style="mix-blend-mode:plus-lighter" opacity="0.2" filter="url(#filter2_f_167_529)">
<ellipse cx="47.97" cy="9.68495" rx="47.97" ry="9.68495" transform="matrix(0.899761 -0.436384 0.510938 0.859618 212 254.187)" fill="#6F36D9"/>
</g>
<path d="M269.086 109.692C271.877 110.082 274.329 110.842 276.249 111.844C278.18 112.852 279.499 114.066 280.144 115.322L318.541 190.125C319.163 191.336 319.143 192.551 318.541 193.724C317.919 194.935 316.64 196.161 314.645 197.202L209.743 251.961C205.747 254.047 199.816 254.898 194.213 254.114L50.9142 234.071C48.1234 233.68 45.6709 232.92 43.7515 231.918C41.8199 230.91 40.5008 229.696 39.8558 228.44L1.4591 153.638C0.836995 152.426 0.857024 151.211 1.4591 150.038C2.08091 148.827 3.36 147.601 5.3548 146.56L110.257 91.801C114.253 89.7148 120.184 88.8647 125.787 89.6485L269.086 109.692Z" fill="url(#paint8_linear_167_529)" stroke="url(#paint9_linear_167_529)" stroke-width="2"/>
<path d="M269.086 89.9511C271.877 90.3415 274.329 91.1017 276.249 92.1036C278.18 93.1119 279.499 94.3255 280.144 95.582L318.541 170.384C319.163 171.596 319.143 172.811 318.541 173.984C317.919 175.195 316.64 176.421 314.645 177.462L209.743 232.221C205.747 234.307 199.816 235.157 194.213 234.373L50.9142 214.33C48.1234 213.94 45.6709 213.18 43.7515 212.178C41.8199 211.169 40.5008 209.956 39.8558 208.699L1.4591 133.897C0.836995 132.685 0.857024 131.471 1.4591 130.298C2.08091 129.086 3.36 127.861 5.3548 126.819L110.257 72.0605C114.253 69.9743 120.184 69.1242 125.787 69.908L269.086 89.9511Z" fill="url(#paint10_linear_167_529)" stroke="url(#paint11_linear_167_529)" stroke-width="2"/>
<g style="mix-blend-mode:plus-lighter" opacity="0.2" filter="url(#filter3_f_167_529)">
<ellipse cx="48.8328" cy="9.48295" rx="48.8328" ry="9.48295" transform="matrix(0.989712 0.143073 -0.168853 0.985641 58.3443 205.694)" fill="#6F36D9"/>
</g>
<path d="M269.086 72.9106C271.877 73.3009 274.329 74.0612 276.249 75.0631C278.18 76.0714 279.499 77.285 280.144 78.5415L318.541 153.344C319.163 154.555 319.143 155.77 318.541 156.943C317.919 158.154 316.64 159.38 314.645 160.421L209.743 215.18C205.747 217.266 199.816 218.117 194.213 217.333L50.9142 197.29C48.1234 196.899 45.6709 196.139 43.7515 195.137C41.8199 194.129 40.5008 192.915 39.8558 191.659L1.4591 116.857C0.836995 115.645 0.857024 114.43 1.4591 113.257C2.08091 112.046 3.36 110.82 5.3548 109.779L110.257 55.02C114.253 52.9337 120.184 52.0836 125.787 52.8675L269.086 72.9106Z" fill="url(#paint12_linear_167_529)" stroke="url(#paint13_linear_167_529)" stroke-width="2"/>
<path d="M269.086 55.8701C271.877 56.2604 274.329 57.0207 276.249 58.0226C278.18 59.0309 279.499 60.2445 280.144 61.501L318.541 136.303C319.163 137.515 319.143 138.73 318.541 139.902C317.919 141.114 316.64 142.34 314.645 143.381L209.743 198.14C205.747 200.226 199.816 201.076 194.213 200.292L50.9142 180.249C48.1234 179.859 45.6709 179.098 43.7515 178.097C41.8199 177.088 40.5008 175.875 39.8558 174.618L1.4591 99.8162C0.836995 98.6042 0.857024 97.3896 1.4591 96.2167C2.08091 95.0053 3.36 93.7796 5.3548 92.7383L110.257 37.9795C114.253 35.8932 120.184 35.0431 125.787 35.8269L269.086 55.8701Z" fill="url(#paint14_linear_167_529)" stroke="url(#paint15_linear_167_529)" stroke-width="2"/>
<g style="mix-blend-mode:plus-lighter" opacity="0.2" filter="url(#filter4_f_167_529)">
<ellipse cx="68.3138" cy="12.5797" rx="68.3138" ry="12.5797" transform="matrix(0.991897 0.127042 -0.149616 0.988744 135.764 25)" fill="#6F36D9"/>
</g>
<defs>
<filter id="filter0_f_167_529" x="164.146" y="97.9348" width="108.202" height="79.95" filterUnits="userSpaceOnUse" color-interpolation-filters="sRGB">
<feFlood flood-opacity="0" result="BackgroundImageFix"/>
<feBlend mode="normal" in="SourceGraphic" in2="BackgroundImageFix" result="shape"/>
<feGaussianBlur stdDeviation="15" result="effect1_foregroundBlur_167_529"/>
</filter>
<filter id="filter1_f_167_529" x="189.662" y="205.256" width="146.897" height="105.068" filterUnits="userSpaceOnUse" color-interpolation-filters="sRGB">
<feFlood flood-opacity="0" result="BackgroundImageFix"/>
<feBlend mode="normal" in="SourceGraphic" in2="BackgroundImageFix" result="shape"/>
<feGaussianBlur stdDeviation="15" result="effect1_foregroundBlur_167_529"/>
</filter>
<filter id="filter2_f_167_529" x="186.662" y="189.045" width="146.897" height="105.068" filterUnits="userSpaceOnUse" color-interpolation-filters="sRGB">
<feFlood flood-opacity="0" result="BackgroundImageFix"/>
<feBlend mode="normal" in="SourceGraphic" in2="BackgroundImageFix" result="shape"/>
<feGaussianBlur stdDeviation="15" result="effect1_foregroundBlur_167_529"/>
</filter>
<filter id="filter3_f_167_529" x="26.716" y="180.357" width="156.715" height="83.3403" filterUnits="userSpaceOnUse" color-interpolation-filters="sRGB">
<feFlood flood-opacity="0" result="BackgroundImageFix"/>
<feBlend mode="normal" in="SourceGraphic" in2="BackgroundImageFix" result="shape"/>
<feGaussianBlur stdDeviation="15" result="effect1_foregroundBlur_167_529"/>
</filter>
<filter id="filter4_f_167_529" x="103.855" y="0.948975" width="195.574" height="90.3357" filterUnits="userSpaceOnUse" color-interpolation-filters="sRGB">
<feFlood flood-opacity="0" result="BackgroundImageFix"/>
<feBlend mode="normal" in="SourceGraphic" in2="BackgroundImageFix" result="shape"/>
<feGaussianBlur stdDeviation="15" result="effect1_foregroundBlur_167_529"/>
</filter>
<linearGradient id="paint0_linear_167_529" x1="160" y1="156.523" x2="160" y2="323.564" gradientUnits="userSpaceOnUse">
<stop stop-color="#6F36D9" stop-opacity="0.05"/>
<stop offset="1" stop-color="#2E2E99" stop-opacity="0.1"/>
</linearGradient>
<linearGradient id="paint1_linear_167_529" x1="320" y1="260.499" x2="217.922" y2="93.6375" gradientUnits="userSpaceOnUse">
<stop stop-color="#5E19BF" stop-opacity="0.7"/>
<stop offset="0.445" stop-color="#5E19BF" stop-opacity="0.7"/>
<stop offset="1" stop-color="white" stop-opacity="0.1"/>
</linearGradient>
<linearGradient id="paint2_linear_167_529" x1="160" y1="139.482" x2="160" y2="306.523" gradientUnits="userSpaceOnUse">
<stop stop-color="#6F36D9" stop-opacity="0.05"/>
<stop offset="1" stop-color="#2E2E99" stop-opacity="0.1"/>
</linearGradient>
<linearGradient id="paint3_linear_167_529" x1="320" y1="243.458" x2="217.922" y2="76.597" gradientUnits="userSpaceOnUse">
<stop stop-color="#5E19BF" stop-opacity="0.7"/>
<stop offset="0.445" stop-color="#5E19BF" stop-opacity="0.7"/>
<stop offset="1" stop-color="white" stop-opacity="0.1"/>
</linearGradient>
<linearGradient id="paint4_linear_167_529" x1="160" y1="122.442" x2="160" y2="289.482" gradientUnits="userSpaceOnUse">
<stop stop-color="#6F36D9" stop-opacity="0.05"/>
<stop offset="1" stop-color="#2E2E99" stop-opacity="0.1"/>
</linearGradient>
<linearGradient id="paint5_linear_167_529" x1="320" y1="226.418" x2="217.922" y2="59.5565" gradientUnits="userSpaceOnUse">
<stop stop-color="white" stop-opacity="0.5"/>
<stop offset="0.555" stop-color="#5E19BF" stop-opacity="0.7"/>
<stop offset="1" stop-color="#5E19BF" stop-opacity="0.7"/>
</linearGradient>
<linearGradient id="paint6_linear_167_529" x1="160" y1="105.401" x2="160" y2="272.442" gradientUnits="userSpaceOnUse">
<stop stop-color="#6F36D9" stop-opacity="0.05"/>
<stop offset="1" stop-color="#2E2E99" stop-opacity="0.1"/>
</linearGradient>
<linearGradient id="paint7_linear_167_529" x1="320" y1="209.377" x2="217.922" y2="42.5159" gradientUnits="userSpaceOnUse">
<stop stop-color="white" stop-opacity="0.4"/>
<stop offset="0.555" stop-color="#5E19BF" stop-opacity="0.7"/>
<stop offset="1" stop-color="#5E19BF" stop-opacity="0.7"/>
</linearGradient>
<linearGradient id="paint8_linear_167_529" x1="160" y1="88.3608" x2="160" y2="255.401" gradientUnits="userSpaceOnUse">
<stop stop-color="#6F36D9" stop-opacity="0.05"/>
<stop offset="1" stop-color="#2E2E99" stop-opacity="0.1"/>
</linearGradient>
<linearGradient id="paint9_linear_167_529" x1="320" y1="192.337" x2="217.922" y2="25.4754" gradientUnits="userSpaceOnUse">
<stop stop-color="#5E19BF" stop-opacity="0.7"/>
<stop offset="0.445" stop-color="#5E19BF" stop-opacity="0.7"/>
<stop offset="1" stop-color="white" stop-opacity="0.1"/>
</linearGradient>
<linearGradient id="paint10_linear_167_529" x1="160" y1="68.6204" x2="160" y2="235.661" gradientUnits="userSpaceOnUse">
<stop stop-color="#6F36D9" stop-opacity="0.05"/>
<stop offset="1" stop-color="#2E2E99" stop-opacity="0.1"/>
</linearGradient>
<linearGradient id="paint11_linear_167_529" x1="273" y1="80.1065" x2="31.7595" y2="106.754" gradientUnits="userSpaceOnUse">
<stop stop-color="#5E19BF" stop-opacity="0.7"/>
<stop offset="0.445" stop-color="#5E19BF" stop-opacity="0.7"/>
<stop offset="1" stop-color="white" stop-opacity="0.1"/>
</linearGradient>
<linearGradient id="paint12_linear_167_529" x1="160" y1="51.5798" x2="160" y2="218.62" gradientUnits="userSpaceOnUse">
<stop stop-color="#6F36D9" stop-opacity="0.05"/>
<stop offset="1" stop-color="#2E2E99" stop-opacity="0.1"/>
</linearGradient>
<linearGradient id="paint13_linear_167_529" x1="320" y1="155.556" x2="217.922" y2="-11.3056" gradientUnits="userSpaceOnUse">
<stop stop-color="#5E19BF" stop-opacity="0.7"/>
<stop offset="0.445" stop-color="#5E19BF" stop-opacity="0.7"/>
<stop offset="1" stop-color="white" stop-opacity="0.1"/>
</linearGradient>
<linearGradient id="paint14_linear_167_529" x1="160" y1="34.5393" x2="160" y2="201.58" gradientUnits="userSpaceOnUse">
<stop stop-color="#6F36D9" stop-opacity="0.05"/>
<stop offset="1" stop-color="#2E2E99" stop-opacity="0.1"/>
</linearGradient>
<linearGradient id="paint15_linear_167_529" x1="320" y1="138.515" x2="217.922" y2="-28.3461" gradientUnits="userSpaceOnUse">
<stop stop-color="#5E19BF" stop-opacity="0.7"/>
<stop offset="0.445" stop-color="#5E19BF" stop-opacity="0.7"/>
<stop offset="1" stop-color="white" stop-opacity="0.1"/>
</linearGradient>
</defs>
</svg>
