<svg width="129" height="40" viewBox="0 0 129 40" fill="none" xmlns="http://www.w3.org/2000/svg">
<path d="M74.0393 6.00476H70.0385C67.8877 6.00476 65.8543 6.48925 64.0411 7.35547C61.1341 8.73554 58.7704 11.0919 57.3903 14.0062C56.5241 15.8268 56.0396 17.8602 56.0396 20.0037V34.0026H64.0411V20.0037C64.0411 16.693 66.7278 14.0062 70.0385 14.0062H74.0393H77.1224V6.00476H74.0393Z" fill="white"/>
<path d="M19.9963 3.40613V5.06515V7.34815C18.1758 6.48193 16.1424 5.99743 13.9989 5.99743C6.26904 5.99743 0 12.2665 0 19.9963C0 27.7262 6.26904 33.9952 13.9989 33.9952C16.1498 33.9952 18.1832 33.5108 19.9963 32.6445C24.7238 30.3983 27.9978 25.5827 27.9978 19.9963V5.06515V3.40613V0H19.9963V3.40613ZM13.9916 26.0011C10.6809 26.0011 7.99413 23.3144 7.99413 20.0037C7.99413 16.693 10.6809 14.0062 13.9916 14.0062C17.3023 14.0062 19.989 16.693 19.989 20.0037C19.9963 23.3144 17.3096 26.0011 13.9916 26.0011Z" fill="white"/>
<path d="M91.5178 6.00476C89.367 6.00476 87.3336 6.48925 85.5204 7.35547C80.7929 9.60175 77.5189 14.4173 77.5189 20.0037V33.3786V36.6967V40H85.5204V36.6967V33.3786V32.6592C87.3409 33.5254 89.3743 34.0099 91.5178 34.0099C99.2477 34.0099 105.517 27.7409 105.517 20.011C105.517 12.2665 99.2477 6.00476 91.5178 6.00476ZM91.5178 26.0011C88.2071 26.0011 85.5204 23.3144 85.5204 20.0037C85.5204 16.693 88.2071 14.0062 91.5178 14.0062C94.8286 14.0062 97.5153 16.693 97.5153 20.0037C97.5153 23.3144 94.8286 26.0011 91.5178 26.0011Z" fill="white"/>
<path d="M124.463 26.0012H121.512C118.202 26.0012 115.515 23.3144 115.515 20.0037V14.0063H123.516V6.00481H115.515V0.00738144H107.513V20.0037C107.513 22.1472 107.998 24.188 108.864 26.0012C110.244 28.9081 112.601 31.2719 115.515 32.6519C117.335 33.5182 119.369 34.0026 121.512 34.0026H124.463H124.97H128.09V26.0012H124.97H124.463Z" fill="white"/>
<path d="M46.1003 6.00476H44.0449C41.8941 6.00476 39.8607 6.48925 38.0475 7.35547C35.1405 8.73554 32.7768 11.0919 31.3967 14.0062C30.5305 15.8268 30.046 17.8602 30.046 20.0037H38.0475C38.0475 16.693 40.7342 14.0062 44.0449 14.0062H46.1003H46.3499H54.0431V6.00476H46.3499H46.1003Z" fill="white"/>
<path d="M40.0442 26.0011H38.6568H38.1576H30.046V34.0026H38.1576H38.6568H40.0442C42.1877 34.0026 44.2284 33.5181 46.0416 32.6519C48.9486 31.2718 51.3123 28.9154 52.6924 26.0011C53.5586 24.1806 54.0431 22.1472 54.0431 20.0037H46.0416C46.0416 23.3144 43.3549 26.0011 40.0442 26.0011Z" fill="white"/>
</svg>
