<svg width="320" height="168" viewBox="0 0 320 168" fill="none" xmlns="http://www.w3.org/2000/svg">
<path d="M269.086 21.8537C271.877 22.2441 274.329 23.0043 276.249 24.0062C278.18 25.0145 279.499 26.2281 280.144 27.4846L318.541 102.287C319.163 103.499 319.143 104.713 318.541 105.886C317.919 107.097 316.64 108.323 314.645 109.364L209.743 164.123C205.747 166.21 199.816 167.06 194.213 166.276L50.9142 146.233C48.1234 145.842 45.6709 145.082 43.7515 144.08C41.8199 143.072 40.5008 141.858 39.8558 140.602L1.4591 65.7998C0.836995 64.5879 0.857024 63.3733 1.4591 62.2004C2.08091 60.989 3.36 59.7633 5.3548 58.722L110.257 3.9631C114.253 1.87686 120.184 1.02676 125.787 1.81057L269.086 21.8537Z" fill="url(#paint0_linear_167_530)" stroke="url(#paint1_linear_167_530)" stroke-width="2"/>
<defs>
<linearGradient id="paint0_linear_167_530" x1="160" y1="0.522949" x2="160" y2="167.564" gradientUnits="userSpaceOnUse">
<stop stop-color="#6F36D9" stop-opacity="0.05"/>
<stop offset="1" stop-color="#2E2E99" stop-opacity="0.1"/>
</linearGradient>
<linearGradient id="paint1_linear_167_530" x1="320" y1="104.499" x2="217.922" y2="-62.3625" gradientUnits="userSpaceOnUse">
<stop stop-color="#5E19BF" stop-opacity="0.7"/>
<stop offset="0.445" stop-color="#5E19BF" stop-opacity="0.7"/>
<stop offset="1" stop-color="white" stop-opacity="0.1"/>
</linearGradient>
</defs>
</svg>
