<svg width="32" height="32" viewBox="0 0 32 32" fill="none" xmlns="http://www.w3.org/2000/svg">
<path fill-rule="evenodd" clip-rule="evenodd" d="M23.777 8.43C24.0241 8.32599 24.2946 8.29011 24.5603 8.32611C24.826 8.36211 25.0772 8.46866 25.2877 8.63468C25.4982 8.8007 25.6604 9.02011 25.7574 9.27008C25.8543 9.52005 25.8825 9.79144 25.839 10.056L23.571 23.813C23.351 25.14 21.895 25.901 20.678 25.24C19.66 24.687 18.148 23.835 16.788 22.946C16.108 22.501 14.025 21.076 14.281 20.062C14.501 19.195 18.001 15.937 20.001 14C20.786 13.239 20.428 12.8 19.501 13.5C17.199 15.238 13.503 17.881 12.281 18.625C11.203 19.281 10.641 19.393 9.96902 19.281C8.74302 19.077 7.60602 18.761 6.67802 18.376C5.42402 17.856 5.48502 16.132 6.67702 15.63L23.777 8.43Z" fill="currentColor"/>
</svg>
